<svg xmlns="http://www.w3.org/2000/svg" width="1600" height="453" viewBox="0 0 1200 340">
<defs>
<marker id="ho2" viewBox="0 0 10 10" refX="8" refY="5" markerWidth="6" markerHeight="6" orient="auto-start-reverse"><path d="M2 1L8 5L2 9" fill="none" stroke="#5F5E5A" stroke-width="1.5" stroke-linecap="round" stroke-linejoin="round"/></marker>
</defs>
<rect width="1200" height="340" fill="#FFFFFF"/>

<g><rect x="52" y="40" width="148" height="56" rx="8" fill="#EEEDFE" stroke="#534AB7" stroke-width="0.5"/>
<text x="126" y="58" text-anchor="middle" dominant-baseline="central" font-family="sans-serif" font-size="14" font-weight="500" fill="#26215C">LangChain</text>
<text x="126" y="76" text-anchor="middle" dominant-baseline="central" font-family="sans-serif" font-size="12" fill="#3C3489">RAG framework</text></g>
<line x1="200" y1="68" x2="210" y2="68" stroke="#5F5E5A" stroke-width="1.5" marker-end="url(#ho2)"/>

<g><rect x="210" y="40" width="148" height="56" rx="8" fill="#FAECE7" stroke="#993C1D" stroke-width="0.5"/>
<text x="284" y="58" text-anchor="middle" dominant-baseline="central" font-family="sans-serif" font-size="14" font-weight="500" fill="#4A1B0C">Validation</text>
<text x="284" y="76" text-anchor="middle" dominant-baseline="central" font-family="sans-serif" font-size="12" fill="#712B13">Pass / fail</text></g>
<line x1="358" y1="68" x2="368" y2="68" stroke="#5F5E5A" stroke-width="1.5" marker-end="url(#ho2)"/>
<text x="284" y="112" text-anchor="middle" font-family="sans-serif" font-size="12" fill="#5F5E5A">fail -&gt; blocked</text>

<g><rect x="368" y="40" width="148" height="56" rx="8" fill="#F1EFE8" stroke="#5F5E5A" stroke-width="0.5"/>
<text x="442" y="58" text-anchor="middle" dominant-baseline="central" font-family="sans-serif" font-size="14" font-weight="500" fill="#2C2C2A">Take a PDF</text>
<text x="442" y="76" text-anchor="middle" dominant-baseline="central" font-family="sans-serif" font-size="12" fill="#5F5E5A">Source document</text></g>
<line x1="516" y1="68" x2="526" y2="68" stroke="#5F5E5A" stroke-width="1.5" marker-end="url(#ho2)"/>

<g><rect x="526" y="40" width="148" height="56" rx="8" fill="#E6F1FB" stroke="#185FA5" stroke-width="0.5"/>
<text x="600" y="58" text-anchor="middle" dominant-baseline="central" font-family="sans-serif" font-size="14" font-weight="500" fill="#042C53">Chunk PDF</text>
<text x="600" y="76" text-anchor="middle" dominant-baseline="central" font-family="sans-serif" font-size="12" fill="#0C447C">Overlap windows</text></g>
<line x1="674" y1="68" x2="684" y2="68" stroke="#5F5E5A" stroke-width="1.5" marker-end="url(#ho2)"/>

<g><rect x="684" y="40" width="148" height="56" rx="8" fill="#E6F1FB" stroke="#185FA5" stroke-width="0.5"/>
<text x="758" y="58" text-anchor="middle" dominant-baseline="central" font-family="sans-serif" font-size="14" font-weight="500" fill="#042C53">Embeddings</text>
<text x="758" y="76" text-anchor="middle" dominant-baseline="central" font-family="sans-serif" font-size="12" fill="#0C447C">Text to vectors</text></g>
<line x1="832" y1="68" x2="842" y2="68" stroke="#5F5E5A" stroke-width="1.5" marker-end="url(#ho2)"/>

<g><rect x="842" y="40" width="148" height="56" rx="8" fill="#E6F1FB" stroke="#185FA5" stroke-width="0.5"/>
<text x="916" y="58" text-anchor="middle" dominant-baseline="central" font-family="sans-serif" font-size="14" font-weight="500" fill="#042C53">Store vectors</text>
<text x="916" y="76" text-anchor="middle" dominant-baseline="central" font-family="sans-serif" font-size="12" fill="#0C447C">Vector store</text></g>
<line x1="990" y1="68" x2="1000" y2="68" stroke="#5F5E5A" stroke-width="1.5" marker-end="url(#ho2)"/>

<g><rect x="1000" y="40" width="148" height="56" rx="8" fill="#E6F1FB" stroke="#185FA5" stroke-width="0.5"/>
<text x="1074" y="58" text-anchor="middle" dominant-baseline="central" font-family="sans-serif" font-size="14" font-weight="500" fill="#042C53">Search</text>
<text x="1074" y="76" text-anchor="middle" dominant-baseline="central" font-family="sans-serif" font-size="12" fill="#0C447C">Top-k, cosine</text></g>

<path d="M1074 96 L1074 150 L205 150 L205 200" fill="none" stroke="#5F5E5A" stroke-width="1.5" marker-end="url(#ho2)"/>

<g><rect x="131" y="200" width="148" height="56" rx="8" fill="#E6F1FB" stroke="#185FA5" stroke-width="0.5"/>
<text x="205" y="218" text-anchor="middle" dominant-baseline="central" font-family="sans-serif" font-size="14" font-weight="500" fill="#042C53">Rerank</text>
<text x="205" y="236" text-anchor="middle" dominant-baseline="central" font-family="sans-serif" font-size="12" fill="#0C447C">By relevance</text></g>
<line x1="279" y1="228" x2="289" y2="228" stroke="#5F5E5A" stroke-width="1.5" marker-end="url(#ho2)"/>

<g><rect x="289" y="200" width="148" height="56" rx="8" fill="#E1F5EE" stroke="#0F6E56" stroke-width="0.5"/>
<text x="363" y="218" text-anchor="middle" dominant-baseline="central" font-family="sans-serif" font-size="14" font-weight="500" fill="#04342C">Prompt chain</text>
<text x="363" y="236" text-anchor="middle" dominant-baseline="central" font-family="sans-serif" font-size="12" fill="#085041">Context + query</text></g>
<line x1="437" y1="228" x2="447" y2="228" stroke="#5F5E5A" stroke-width="1.5" marker-end="url(#ho2)"/>

<g><rect x="447" y="200" width="148" height="56" rx="8" fill="#FBEAF0" stroke="#993556" stroke-width="0.5"/>
<text x="521" y="218" text-anchor="middle" dominant-baseline="central" font-family="sans-serif" font-size="14" font-weight="500" fill="#4B1528">LLM call</text>
<text x="521" y="236" text-anchor="middle" dominant-baseline="central" font-family="sans-serif" font-size="12" fill="#993556">Ask response</text></g>
<line x1="595" y1="228" x2="605" y2="228" stroke="#5F5E5A" stroke-width="1.5" marker-end="url(#ho2)"/>

<g><rect x="605" y="200" width="148" height="56" rx="8" fill="#FAEEDA" stroke="#854F0B" stroke-width="0.5"/>
<text x="679" y="218" text-anchor="middle" dominant-baseline="central" font-family="sans-serif" font-size="14" font-weight="500" fill="#412402">Evaluation</text>
<text x="679" y="236" text-anchor="middle" dominant-baseline="central" font-family="sans-serif" font-size="12" fill="#633806">DeepEval</text></g>
<line x1="753" y1="228" x2="763" y2="228" stroke="#5F5E5A" stroke-width="1.5" marker-end="url(#ho2)"/>
<path d="M605 200 L605 184 L521 184 L521 200" fill="none" stroke="#5F5E5A" stroke-width="1.5" marker-end="url(#ho2)"/>
<text x="563" y="176" text-anchor="middle" font-family="sans-serif" font-size="12" fill="#5F5E5A">not ok -&gt; retry</text>

<g><rect x="763" y="200" width="148" height="56" rx="8" fill="#FAECE7" stroke="#993C1D" stroke-width="0.5"/>
<text x="837" y="218" text-anchor="middle" dominant-baseline="central" font-family="sans-serif" font-size="14" font-weight="500" fill="#4A1B0C">Guardrail</text>
<text x="837" y="236" text-anchor="middle" dominant-baseline="central" font-family="sans-serif" font-size="12" fill="#712B13">NeMo Guardrails</text></g>
<line x1="911" y1="228" x2="921" y2="228" stroke="#5F5E5A" stroke-width="1.5" marker-end="url(#ho2)"/>

<g><rect x="921" y="200" width="148" height="56" rx="8" fill="#F1EFE8" stroke="#5F5E5A" stroke-width="0.5"/>
<text x="995" y="218" text-anchor="middle" dominant-baseline="central" font-family="sans-serif" font-size="14" font-weight="500" fill="#2C2C2A">Observability</text>
<text x="995" y="236" text-anchor="middle" dominant-baseline="central" font-family="sans-serif" font-size="12" fill="#5F5E5A">Tokens &amp; cost</text></g>
</svg>
